<?xml version="1.0" encoding="UTF-8"?>
<svg width="170px" height="25px" viewBox="0 0 170 25" version="1.1" xmlns="http://www.w3.org/2000/svg" xmlns:xlink="http://www.w3.org/1999/xlink">
    <!-- Generator: Sketch 39.1 (31720) - http://www.bohemiancoding.com/sketch -->
    <title>PIXALIKE</title>
    <desc>Created with Sketch.</desc>
    <defs></defs>
    <g id="Page-1" stroke="none" stroke-width="1" fill="none" fill-rule="evenodd">
        <g id="iPhone-6" transform="translate(-103.000000, -117.000000)" fill="#FFFFFF">
            <path d="M103,138.721667 C103,139.672807 103.279586,140.451554 103.838757,141.057906 C104.397929,141.664258 105.189097,141.967434 106.212261,141.967434 C107.235425,141.967434 108.026594,141.664258 108.585765,141.057906 C109.144937,140.451554 109.424522,139.672807 109.424522,138.721667 L109.424522,134.227529 C110.185948,134.346422 110.959269,134.405868 111.744489,134.405868 C114.647421,134.405868 117.026874,133.668734 118.882847,132.194467 C120.73882,130.720199 121.666807,128.544465 121.666807,125.667266 C121.666807,122.837625 120.756666,120.715393 118.936385,119.300571 C117.116103,117.885749 114.69501,117.178339 111.673105,117.178339 C109.388831,117.178339 107.449577,117.344789 105.855343,117.677687 C103.951781,118.081924 103,119.270848 103,121.244464 L103,138.721667 Z M111.423263,128.877365 C110.614248,128.877365 109.948002,128.841697 109.424522,128.770362 L109.424522,122.813845 C109.948003,122.74251 110.649941,122.706842 111.530338,122.706842 C112.601092,122.706842 113.427951,122.962462 114.010917,123.473699 C114.593884,123.984937 114.885366,124.716126 114.885366,125.667266 C114.885366,126.737299 114.570089,127.539824 113.939534,128.07484 C113.308979,128.609857 112.470222,128.877365 111.423263,128.877365 L111.423263,128.877365 Z M127.851684,138.721667 C127.851684,139.672807 128.13127,140.451554 128.690441,141.057906 C129.249613,141.664258 130.040781,141.967434 131.063945,141.967434 C132.08711,141.967434 132.878278,141.664258 133.437449,141.057906 C133.996621,140.451554 134.276206,139.672807 134.276206,138.721667 L134.276206,120.602444 C134.276206,119.651303 133.996621,118.872558 133.437449,118.266206 C132.878278,117.659854 132.08711,117.356678 131.063945,117.356678 C130.04078,117.356678 129.249612,117.659854 128.690441,118.266206 C128.13127,118.872558 127.851684,119.651303 127.851684,120.602444 L127.851684,138.721667 Z M146.600072,119.06873 C146.029003,118.236483 145.338962,117.695521 144.529948,117.445847 C143.720935,117.196173 142.816742,117.404234 141.817372,118.070033 C141.079742,118.664494 140.704978,119.419462 140.693081,120.334936 C140.681184,121.250407 140.948872,122.041043 141.496146,122.706842 L146.921298,129.448049 L140.960769,137.187954 C140.413495,137.853751 140.163653,138.59683 140.211241,139.417189 C140.25883,140.237547 140.65144,140.933069 141.389071,141.503753 C143.054687,142.454893 144.506153,142.038769 145.743469,140.255381 L150.419094,133.835184 L155.344561,140.398052 C155.915629,141.206522 156.599722,141.711815 157.396839,141.913932 C158.193955,142.11605 159.020815,141.919877 159.877418,141.325414 C160.615049,140.778508 161.019556,140.059208 161.090939,139.167514 C161.162323,138.27582 160.924377,137.461406 160.377103,136.724273 L154.345191,129.055704 L159.663267,122.278829 C160.234336,121.494138 160.52582,120.73917 160.537716,120.013926 C160.549613,119.288682 160.174849,118.605049 159.413425,117.96303 C157.86678,116.821661 156.415314,117.225895 155.059026,119.175734 L150.883087,124.775572 L146.600072,119.06873 Z M180.874389,139.506358 C181.231307,140.528834 181.790478,141.242189 182.551903,141.646424 C183.313329,142.050658 184.181829,142.062548 185.157404,141.682092 C186.014007,141.325414 186.555333,140.701228 186.78138,139.809534 C187.00743,138.91784 186.930097,138.091537 186.549384,137.330625 L178.839957,119.06873 C178.245094,117.689576 177.233826,117 175.806155,117 C174.330894,117 173.283935,117.772802 172.665277,119.318405 L165.170001,137.437628 C164.765494,138.317433 164.634624,139.179404 164.777391,140.023541 C164.920158,140.867678 165.396049,141.432417 166.205063,141.717759 C167.299611,142.121994 168.203803,142.050658 168.917639,141.503753 C169.631475,140.956847 170.166852,140.148378 170.52377,139.078345 L171.630215,135.903914 L179.518101,135.903914 L180.874389,139.506358 Z M175.52062,125.203585 L177.840587,131.124434 L173.236346,131.124434 L175.52062,125.203585 Z M206.65406,141.967434 C207.629636,141.967434 208.391061,141.711815 208.938334,141.200577 C209.485608,140.689339 209.759245,139.981929 209.759245,139.078345 C209.759245,138.222319 209.485608,137.538687 208.938334,137.027449 C208.391061,136.516211 207.629636,136.260592 206.65406,136.260592 L198.552023,136.260592 L198.552023,120.602444 C198.552023,119.651303 198.272438,118.872558 197.713266,118.266206 C197.154095,117.659854 196.362927,117.356678 195.339762,117.356678 C194.316597,117.356678 193.525429,117.659854 192.966258,118.266206 C192.407087,118.872558 192.127501,119.651303 192.127501,120.602444 L192.127501,138.721667 C192.127501,139.649029 192.407087,140.42183 192.966258,141.040072 C193.525429,141.658313 194.280906,141.967434 195.232686,141.967434 L206.65406,141.967434 Z M215.051828,138.721667 C215.051828,139.672807 215.331414,140.451554 215.890585,141.057906 C216.449757,141.664258 217.240925,141.967434 218.264089,141.967434 C219.287254,141.967434 220.078422,141.664258 220.637593,141.057906 C221.196765,140.451554 221.47635,139.672807 221.47635,138.721667 L221.47635,120.602444 C221.47635,119.651303 221.196765,118.872558 220.637593,118.266206 C220.078422,117.659854 219.287254,117.356678 218.264089,117.356678 C217.240924,117.356678 216.449756,117.659854 215.890585,118.266206 C215.331414,118.872558 215.051828,119.651303 215.051828,120.602444 L215.051828,138.721667 Z M229.267359,138.721667 C229.267359,139.672807 229.546945,140.451554 230.106116,141.057906 C230.665287,141.664258 231.456455,141.967434 232.47962,141.967434 C233.502784,141.967434 234.293952,141.664258 234.853124,141.057906 C235.412295,140.451554 235.691881,139.672807 235.691881,138.721667 L235.691881,131.053098 L243.187157,140.362384 C243.900993,141.242189 244.674315,141.765316 245.507123,141.931766 C246.339931,142.098216 247.184638,141.836652 248.041241,141.147075 C248.778869,140.481277 249.141737,139.702531 249.12984,138.810837 C249.117944,137.919143 248.755076,137.069061 248.041241,136.260592 L241.973636,129.234043 L247.184638,122.849513 C247.850883,122.017264 248.195904,121.167183 248.219699,120.299268 C248.243493,119.431353 247.91037,118.700164 247.220329,118.105701 C246.411315,117.48746 245.578507,117.273454 244.721904,117.463681 C243.865301,117.653908 243.091979,118.224592 242.401938,119.175734 L235.691881,128.235345 L235.691881,120.602444 C235.691881,119.651303 235.412295,118.872558 234.853124,118.266206 C234.293953,117.659854 233.502785,117.356678 232.47962,117.356678 C231.456455,117.356678 230.665287,117.659854 230.106116,118.266206 C229.546945,118.872558 229.267359,119.651303 229.267359,120.602444 L229.267359,138.721667 Z M254.618728,138.721667 C254.618728,139.672807 254.898314,140.451554 255.457485,141.057906 C256.016656,141.664258 256.807825,141.967434 257.830989,141.967434 L269.502204,141.967434 C270.477779,141.967434 271.245153,141.70587 271.804325,141.182743 C272.363497,140.659616 272.643082,139.970039 272.643082,139.114013 C272.643082,138.210429 272.363497,137.508963 271.804325,137.009615 C271.245155,136.510266 270.47778,136.260592 269.502204,136.260592 L261.04325,136.260592 L261.04325,132.337138 L267.360697,132.337138 C268.336273,132.337138 269.103647,132.075574 269.662818,131.552447 C270.221989,131.02932 270.501575,130.339743 270.501575,129.483717 C270.501575,128.580133 270.221989,127.878668 269.662818,127.379319 C269.103647,126.87997 268.336273,126.630296 267.360697,126.630296 L261.04325,126.630296 L261.04325,123.06352 L269.180978,123.06352 C270.156553,123.06352 270.923927,122.801957 271.483099,122.278829 C272.042271,121.755701 272.321856,121.066125 272.321856,120.210099 C272.321856,119.306516 272.042271,118.605049 271.483099,118.105701 C270.923929,117.606352 270.156554,117.356678 269.180978,117.356678 L257.830989,117.356678 C256.807824,117.356678 256.016656,117.659854 255.457485,118.266206 C254.898314,118.872558 254.618728,119.651303 254.618728,120.602444 L254.618728,138.721667 Z" id="PIXALIKE"></path>
        </g>
    </g>
</svg>